<?xml version="1.0" encoding="utf-8"?>
<!-- Generator: Adobe Illustrator 16.0.0, SVG Export Plug-In . SVG Version: 6.00 Build 0)  -->
<!DOCTYPE svg PUBLIC "-//W3C//DTD SVG 1.1 Basic//EN" "http://www.w3.org/Graphics/SVG/1.1/DTD/svg11-basic.dtd">
<svg version="1.1" baseProfile="basic" id="Layer_1"
	 xmlns="http://www.w3.org/2000/svg" xmlns:xlink="http://www.w3.org/1999/xlink" x="0px" y="0px" width="32px" height="28.743px"
	 viewBox="0 0 32 28.743" xml:space="preserve">
<path fill="#424549" d="M19.032,1.978C18.309,0.721,17.205,0,16.003,0c-1.202,0-2.306,0.721-3.028,1.978L9.159,8.609
	c0.951,0.533,1.855,1.139,2.709,1.807c4.557,3.568,7.627,8.957,8.117,15.068h-2.396c-0.472-5.228-3.074-9.845-6.927-12.972
	c-0.843-0.684-1.744-1.295-2.696-1.828l-4.471,7.769c0.972,0.522,1.845,1.204,2.589,2.007c0,0.001,0.001,0.002,0.003,0.003
	c1.268,1.372,2.154,3.104,2.49,5.022l-4.004-0.002c-0.44,0-0.797-0.357-0.797-0.8c0-0.138,0.036-0.267,0.096-0.381l1.011-1.721
	c-0.744-0.804-1.618-1.484-2.589-2.007l-1.696,2.904c-0.723,1.257-0.793,2.576-0.192,3.62c0.6,1.045,1.774,1.644,3.221,1.644h8.255
	c0.059-0.505,0.092-1.019,0.092-1.538c0-0.583-0.042-1.156-0.115-1.719c-0.406-3.119-1.903-5.898-4.095-7.939l1.25-2.171
	c2.902,2.517,4.873,6.085,5.313,10.11c0.062,0.564,0.097,1.138,0.097,1.719c0,0.52-0.027,1.032-0.077,1.538h8.905
	c0.032-0.51,0.053-1.021,0.053-1.538c0-0.579-0.026-1.15-0.066-1.719c-0.507-7.314-4.216-13.758-9.733-17.917l1.816-3.156
	c0.14-0.231,0.394-0.386,0.683-0.386c0.297,0,0.557,0.163,0.693,0.405l11.432,19.871c0.062,0.114,0.096,0.243,0.096,0.381
	c0,0.442-0.356,0.8-0.797,0.8l-1.793,0.002c0.039,0.569,0.066,1.141,0.066,1.719c0,0.517-0.021,1.029-0.054,1.538h2.726
	c1.448,0,2.622-0.599,3.222-1.643c0.602-1.044,0.531-2.364-0.191-3.62L19.032,1.978z"/>
</svg>
